# xmcd
#
# Track frame offsets: 
#        150
#        21812
#        33625
#        47312
#        59182
#        75460
#        88777
#        104432
#        126587
#        146842
#        167947
#        190110
#        203295
#        216915
#        238142
#
# Disc length: 3416 seconds
#
# Revision: 4
# Processed by: cddbd v1.5.2PL0 Copyright (c) Steve Scherf et al.
# Submitted via: ExactAudioCopy v0.99pb4
#
DISCID=da0d560f
DTITLE=Taj Mahal - Martin Scorsese Presents the Blues: Taj Mahal
DYEAR=2003
DGENRE=Blues
TTITLE0=Leaving Trunk
TTITLE1=Dust My Broom
TTITLE2=Corinna
TTITLE3=Chevrolet
TTITLE4=Going Up to the Country, Paint My Mailbox Blue
TTITLE5=Statesboro Blues
TTITLE6=She Caught the Katy and Left Me a Mule to Ride
TTITLE7=Checkin' Up on My Baby
TTITLE8=Bound to Love Me Some
TTITLE9=Queen Bee
TTITLE10=You're Gonna Need Somebody on Your Bond
TTITLE11=Fishin' Blues
TTITLE12=Six Days on the Road
TTITLE13=Freight Train
TTITLE14=Ain't That a Lot of Love
EXTD=
EXTT0=
EXTT1=
EXTT2=
EXTT3=
EXTT4=
EXTT5=
EXTT6=
EXTT7=
EXTT8=
EXTT9=
EXTT10=
EXTT11=
EXTT12=
EXTT13=
EXTT14=
PLAYORDER=
